<?xml version="1.0" encoding="UTF-8"?>
<svg version="1.1" xmlns="http://www.w3.org/2000/svg" width="500" height="500">
<path d="M0 0 C1.28012466 -0.00570007 2.56024933 -0.01140015 3.87916565 -0.01727295 C6.58473093 -0.02773008 9.29026701 -0.03360575 11.99584961 -0.03710938 C14.73524426 -0.04147598 17.47432076 -0.05530637 20.21362305 -0.078125 C35.0718234 -0.19954144 49.1617207 -0.05879259 63.69140625 3.203125 C66.08519539 3.57085445 68.48088086 3.92661818 70.87890625 4.265625 C98.01665548 9.37931852 131.52348742 21.18015411 152.69140625 39.203125 C154.33831968 40.12539652 155.98529525 41.04755756 157.6328125 41.96875 C166.88112887 47.51423003 174.99964203 54.69326711 183.07373047 61.78515625 C184.50241122 63.03746198 185.9418225 64.27750297 187.3828125 65.515625 C203.67155051 79.73885691 218.83776137 97.47030352 229.69140625 116.203125 C230.10519531 116.86570312 230.51898438 117.52828125 230.9453125 118.2109375 C239.13948489 131.46837462 245.90231973 145.14553211 251.62890625 159.640625 C252.31956177 161.38061768 252.31956177 161.38061768 253.02416992 163.15576172 C255.82452007 170.41024881 257.98145371 177.62136244 259.69140625 185.203125 C260.04543584 186.68362654 260.39958987 188.16409832 260.75390625 189.64453125 C261.06796042 191.01787469 261.38049742 192.39156608 261.69140625 193.765625 C261.84351563 194.41080078 261.995625 195.05597656 262.15234375 195.72070312 C262.7135095 198.2068514 263.20603863 200.70097837 263.69140625 203.203125 C263.94873535 204.4701123 264.20606445 205.73709961 264.47119141 207.04248047 C266.95308075 220.18139083 267.15180475 233.17670951 267.08251953 246.51855469 C267.06643023 250.19764269 267.08245689 253.8756325 267.1015625 257.5546875 C267.11347864 271.053173 266.41928998 283.97290844 263.69140625 297.203125 C263.4530304 298.3839843 263.4530304 298.3839843 263.20983887 299.58869934 C259.86593902 316.05250203 255.18941489 331.71591407 248.69140625 347.203125 C248.10939453 348.69005859 248.10939453 348.69005859 247.515625 350.20703125 C237.43085162 375.67888153 221.59263204 397.71567478 203.69140625 418.203125 C203.24684082 418.71230469 202.80227539 419.22148437 202.34423828 419.74609375 C192.7709682 430.63101026 182.35277399 440.56922773 170.69140625 449.203125 C170.06234375 449.68910156 169.43328125 450.17507813 168.78515625 450.67578125 C138.11485376 474.24414894 101.99292844 489.78278796 64.19140625 497.453125 C63.39138184 497.61627197 62.59135742 497.77941895 61.76708984 497.94750977 C51.83824743 499.88000354 42.05878929 500.36114026 31.95703125 500.37109375 C30.76140564 500.37442215 29.56578003 500.37775055 28.33392334 500.38117981 C25.81604392 500.3862182 23.29815789 500.3885891 20.78027344 500.38842773 C16.96668269 500.39061053 13.15338333 500.40878969 9.33984375 500.42773438 C-13.90963683 500.48230011 -13.90963683 500.48230011 -25.30859375 498.203125 C-26.95306012 497.92799737 -28.59758698 497.65323087 -30.2421875 497.37890625 C-47.39351851 494.18078862 -64.42359342 489.49884176 -80.30859375 482.203125 C-81.37207031 481.75066406 -81.37207031 481.75066406 -82.45703125 481.2890625 C-94.47230627 476.15242076 -106.21197021 470.09215992 -117.30859375 463.203125 C-118.14825684 462.68226318 -118.14825684 462.68226318 -119.00488281 462.15087891 C-141.01308195 448.35802783 -161.20347506 430.551982 -177.30859375 410.203125 C-178.2182987 409.07255338 -179.1284727 407.94235906 -180.0390625 406.8125 C-185.87938626 399.5237113 -191.25869113 392.06931946 -196.30859375 384.203125 C-196.89125 383.33558594 -197.47390625 382.46804688 -198.07421875 381.57421875 C-222.65594325 344.42481077 -234.32405939 298.76130391 -233.96044922 254.62182617 C-233.93362191 250.76966888 -233.96040272 246.92043023 -233.9921875 243.06835938 C-234.02614104 218.41388164 -230.46214242 194.53090064 -222.30859375 171.203125 C-222.05964355 170.48882324 -221.81069336 169.77452148 -221.55419922 169.03857422 C-219.90915102 164.38421309 -218.14668064 159.78433427 -216.30859375 155.203125 C-215.84839844 154.04683594 -215.38820312 152.89054688 -214.9140625 151.69921875 C-199.76958634 115.02705748 -174.34632834 80.91544786 -143.30859375 56.203125 C-142.17573812 55.29041811 -141.04292704 54.37765593 -139.91015625 53.46484375 C-132.6229682 47.62861761 -125.1716056 42.25098446 -117.30859375 37.203125 C-116.00728516 36.32914063 -116.00728516 36.32914063 -114.6796875 35.4375 C-107.52740446 30.70484177 -100.05042465 26.84307963 -92.31884766 23.16308594 C-90.48855726 22.28906337 -88.66938435 21.39185527 -86.8515625 20.4921875 C-66.53459604 10.94970932 -43.50748169 4.27362974 -21.30859375 1.203125 C-20.17542725 1.02950439 -19.04226074 0.85588379 -17.87475586 0.67700195 C-11.93653146 -0.05278994 -5.97467766 0.02085032 0 0 Z M-54.30859375 82.203125 C-55.46101563 82.67492187 -55.46101563 82.67492187 -56.63671875 83.15625 C-61.92109041 85.37487932 -66.98167607 88.05217906 -72.05859375 90.703125 C-72.79255371 91.08315674 -73.52651367 91.46318848 -74.28271484 91.85473633 C-78.31940547 93.9903146 -81.76464539 96.29657742 -85.30859375 99.203125 C-86.79359375 99.698125 -86.79359375 99.698125 -88.30859375 100.203125 C-88.30859375 100.863125 -88.30859375 101.523125 -88.30859375 102.203125 C-88.85644531 102.45449219 -89.40429688 102.70585938 -89.96875 102.96484375 C-92.74766012 104.43548567 -95.20106471 106.16950823 -97.74609375 108.015625 C-98.67292969 108.68207031 -99.59976563 109.34851563 -100.5546875 110.03515625 C-103.37364527 112.25433577 -105.81338531 114.62832458 -108.30859375 117.203125 C-109.0871875 117.95851562 -109.86578125 118.71390625 -110.66796875 119.4921875 C-145.60485516 153.62986409 -164.58302858 199.12190378 -165.54101562 247.73974609 C-165.88860764 296.45090555 -148.11981515 341.92462418 -114.30859375 377.203125 C-113.66664062 377.88503906 -113.0246875 378.56695312 -112.36328125 379.26953125 C-106.12242575 385.72515303 -99.23498757 391.75763236 -91.68359375 396.640625 C-89.30859375 398.203125 -89.30859375 398.203125 -88.30859375 400.203125 C-85.9940459 401.59126923 -83.67409577 402.90825663 -81.30859375 404.203125 C-80.08820899 404.90471613 -78.86944979 405.60914254 -77.65234375 406.31640625 C-64.00212013 414.15896446 -50.4540334 420.70982101 -35.30859375 425.203125 C-34.22602295 425.53207764 -34.22602295 425.53207764 -33.12158203 425.86767578 C14.36879927 440.1097001 63.41325648 431.62471224 106.69140625 409.203125 C110.52968326 407.07453737 114.11796107 404.74914205 117.69140625 402.203125 C118.27422363 401.79255859 118.85704102 401.38199219 119.45751953 400.95898438 C140.00340406 386.38980022 156.66505682 369.10096885 170.69140625 348.203125 C171.26632812 347.35363281 171.84125 346.50414062 172.43359375 345.62890625 C197.41451249 306.3227714 204.7404641 256.45923599 195.04101562 211.16601562 C190.0990828 190.40445212 182.50965396 168.49710291 169.69140625 151.203125 C168.58345703 149.60984375 168.58345703 149.60984375 167.453125 147.984375 C157.10601062 133.05454417 157.10601062 133.05454417 144.19140625 120.4140625 C141.85180851 118.52532474 139.81658973 116.32830848 137.69140625 114.203125 C103.53790999 81.33601278 56.85904599 67.21474831 10.296875 67.953125 C-12.31306611 68.61763466 -33.59558911 73.21064982 -54.30859375 82.203125 Z " fill="#FAFAFA" transform="translate(233.30859375,-0.203125)"/>
<path d="M0 0 C2.34231379 2.34231379 2.54478711 3.57142407 3.25390625 6.76171875 C3.46853516 7.71626953 3.68316406 8.67082031 3.90429688 9.65429688 C4.12150391 10.65525391 4.33871094 11.65621094 4.5625 12.6875 C4.78357422 13.66912109 5.00464844 14.65074219 5.23242188 15.66210938 C7.09071399 24.03284515 8.16079256 32.02608953 8.203125 40.59765625 C8.20882507 41.50897812 8.21452515 42.42029999 8.22039795 43.35923767 C8.22980765 45.28301854 8.23636582 47.20681524 8.24023438 49.13061523 C8.24988985 52.02943165 8.28093129 54.92752291 8.3125 57.82617188 C8.37058441 68.31142076 7.87024765 77.84265677 5 88 C4.67 88 4.34 88 4 88 C4.06058594 87.35788574 4.12117188 86.71577148 4.18359375 86.05419922 C5.99414853 66.44798002 6.96019036 47.41318209 4.6875 27.8125 C4.56995361 26.79736328 4.45240723 25.78222656 4.33129883 24.73632812 C3.56662239 18.79872556 2.35635293 13.20345127 0.59692383 7.47924805 C-0.02462364 4.89772883 -0.10560755 2.6449218 0 0 Z " fill="#818181" transform="translate(425,198)"/>
<path d="M0 0 C1.98 0.99 1.98 0.99 4 2 C4 2.66 4 3.32 4 4 C4.55558594 4.22300781 5.11117188 4.44601563 5.68359375 4.67578125 C17.52629682 11.44589312 30.521519 30.72510153 36 43 C35.505 43.99 35.505 43.99 35 45 C34.68289063 44.51273438 34.36578125 44.02546875 34.0390625 43.5234375 C20.75712863 22.84708484 20.75712863 22.84708484 3.62890625 5.53515625 C1.82900311 3.83884465 0.97055199 2.25811845 0 0 Z " fill="#7B7B7B" transform="translate(373,115)"/>
<path d="M0 0 C-3.46994564 1.96314542 -6.95085008 2.81234699 -10.8125 3.75 C-19.47203981 5.94356425 -28.39395283 8.79942011 -36.17578125 13.2421875 C-38.48670296 14.20218496 -39.68668058 13.82618551 -42 13 C-11.95007714 -0.45794091 -11.95007714 -0.45794091 0 0 Z " fill="#898989" transform="translate(213,71)"/>
<path d="M0 0 C-4.83802768 1.54405139 -9.61927483 2.98963364 -14.625 3.875 C-20.09623301 4.87849569 -25.30092196 6.61497401 -30.55517578 8.41162109 C-35.68014149 10.1066195 -35.68014149 10.1066195 -39 9 C-35.23352023 7.69539911 -31.46112009 6.408786 -27.6875 5.125 C-26.63498047 4.76019531 -25.58246094 4.39539063 -24.49804688 4.01953125 C-6.47858892 -2.07936221 -6.47858892 -2.07936221 0 0 Z " fill="#7B7B7B" transform="translate(202,5)"/>
<path d="M0 0 C-8.85437334 5.90291556 -22.70263401 5.1971836 -33 5 C-33 4.67 -33 4.34 -33 4 C-29.00170835 3.32281186 -25.00113468 2.66016492 -21 2 C-19.87464844 1.80921875 -18.74929688 1.6184375 -17.58984375 1.421875 C-11.642717 0.44807647 -6.02622377 -0.2363225 0 0 Z " fill="#939393" transform="translate(301,495)"/>
<path d="M0 0 C-7.11083767 4.84649271 -14.47619166 8.48600207 -23 10 C-19.19757006 6.78725171 -14.84513078 4.85006144 -10.375 2.75 C-9.59898437 2.37359375 -8.82296875 1.9971875 -8.0234375 1.609375 C-7.2809375 1.25875 -6.5384375 0.908125 -5.7734375 0.546875 C-5.09716309 0.22557617 -4.42088867 -0.09572266 -3.72412109 -0.42675781 C-2 -1 -2 -1 0 0 Z " fill="#7B7B7B" transform="translate(340,410)"/>
<path d="M0 0 C6.16618181 -0.40214229 11.17745757 1.03181664 17 3 C17 3.33 17 3.66 17 4 C10.83381819 4.40214229 5.82254243 2.96818336 0 1 C0 0.67 0 0.34 0 0 Z " fill="#9A9A9A" transform="translate(182,491)"/>
<path d="M0 0 C0.66 0.33 1.32 0.66 2 1 C0.71186658 1.83878455 -0.58063256 2.67086783 -1.875 3.5 C-2.59429687 3.9640625 -3.31359375 4.428125 -4.0546875 4.90625 C-6 6 -6 6 -8 6 C-8 5.34 -8 4.68 -8 4 C-6.71349294 3.30289269 -5.42059335 2.61757124 -4.125 1.9375 C-3.40570313 1.55464844 -2.68640625 1.17179687 -1.9453125 0.77734375 C-1.30335938 0.52082031 -0.66140625 0.26429688 0 0 Z " fill="#8C8C8C" transform="translate(338,409)"/>
</svg>
