<?xml version="1.0" encoding="UTF-8"?>
<svg version="1.1" xmlns="http://www.w3.org/2000/svg" width="348" height="348">
<path d="M0 0 C1.28393646 -0.00686325 2.56787292 -0.0137265 3.89071655 -0.02079773 C7.39287479 -0.03865514 10.89478147 -0.03757491 14.39697146 -0.03185534 C17.32923001 -0.02875273 20.26144099 -0.0348678 23.19369274 -0.04089409 C30.11533457 -0.0549133 37.03685289 -0.05339977 43.95849609 -0.04199219 C51.08067685 -0.03051292 58.20248095 -0.04458909 65.32461208 -0.07138866 C71.4573742 -0.0935947 77.59001852 -0.10017206 83.72281796 -0.09431225 C87.37781334 -0.09095321 91.03256734 -0.09328708 94.68752861 -0.11056328 C98.76588414 -0.12900166 102.84351376 -0.11479517 106.921875 -0.09765625 C108.12059738 -0.10732422 109.31931976 -0.11699219 110.55436707 -0.12695312 C120.29911932 -0.04138137 127.01590774 2.36947081 134.51782227 8.54858398 C139.92598674 15.20370867 139.39492496 22.14234864 139.21313477 30.34155273 C139.19959961 31.50235352 139.18606445 32.6631543 139.17211914 33.85913086 C139.13694886 36.70792326 139.08772764 39.55574118 139.02563477 42.40405273 C140.06268555 42.38310547 141.09973633 42.3621582 142.16821289 42.34057617 C146.09694035 42.26697138 150.02561013 42.22182592 153.95483398 42.18432617 C155.64016031 42.16447997 157.32542037 42.13739381 159.01049805 42.10229492 C178.80064702 41.70106352 195.91629936 44.96403968 210.80297852 59.04858398 C219.35875786 68.11560498 224.12829817 78.73330886 224.17280579 91.18188477 C224.17648247 91.85077067 224.18015916 92.51965658 224.18394727 93.20881176 C224.19493254 95.44317082 224.19881919 97.67748328 224.20263672 99.91186523 C224.20890545 101.51710659 224.21555261 103.1223465 224.22254944 104.72758484 C224.24354992 109.99473061 224.25395057 115.26187652 224.26391602 120.52905273 C224.26796558 122.34679174 224.27208256 124.16453059 224.2762661 125.98226929 C224.29531182 134.52685357 224.30954211 143.07142927 224.31787807 151.61603069 C224.32763752 161.45562046 224.35392582 171.29498449 224.39437896 181.13449478 C224.42462281 188.7542705 224.4393549 196.37398184 224.44265908 203.99381638 C224.44500083 208.53766663 224.45384608 213.08127557 224.47912025 217.62506104 C224.50255014 221.9064512 224.5065749 226.18744374 224.49635887 230.46888161 C224.49586695 232.03084454 224.50208481 233.59282806 224.51591492 235.15472984 C224.6811026 254.93457622 218.36942338 270.06201072 205.07250977 284.52905273 C194.54828421 294.81226549 181.56683619 299.55782112 167.11457825 299.54449463 C165.6057974 299.54895131 165.6057974 299.54895131 164.06653613 299.55349803 C160.69197271 299.56217801 157.31744479 299.56369269 153.94287109 299.56518555 C151.5248914 299.56981422 149.10691244 299.57483895 146.68893433 299.58023071 C140.11645536 299.59335215 133.54398377 299.59983609 126.97149491 299.60424137 C122.86488799 299.60700691 118.75828342 299.61124484 114.65167809 299.61574554 C103.27401916 299.6279362 91.8963621 299.63823574 80.51869678 299.64162064 C79.79088803 299.6418402 79.06307928 299.64205977 78.31321571 299.64228599 C77.58369865 299.64250427 76.85418159 299.64272254 76.10255796 299.64294744 C74.62436155 299.6433909 73.14616515 299.64383746 71.66796875 299.64428711 C70.93473751 299.64450854 70.20150628 299.64472997 69.44605591 299.64495811 C57.57085869 299.6489043 45.69572291 299.66635377 33.82054941 299.68964663 C21.61846648 299.71338683 9.41641435 299.72582371 -2.78569204 299.72698855 C-9.63266142 299.72790385 -16.47955076 299.73361926 -23.32649803 299.75180817 C-29.76889615 299.76886248 -36.21118307 299.77044184 -42.65359879 299.76166916 C-45.01502832 299.76089905 -47.37646603 299.76523807 -49.73787498 299.77512741 C-52.96822674 299.78785982 -56.19804206 299.78196267 -59.4283905 299.77154541 C-60.35691572 299.77960181 -61.28544093 299.78765822 -62.24210328 299.79595876 C-76.40262958 299.68958287 -88.44491471 293.51703292 -98.62280273 283.88842773 C-112.73316974 268.98112971 -117.44853758 253.27110557 -117.36254883 233.16748047 C-117.36662186 231.55648443 -117.37196781 229.9454912 -117.378479 228.33450317 C-117.39207045 223.98950972 -117.38688829 219.6447317 -117.37734175 215.29973483 C-117.36970384 210.73603694 -117.37680205 206.17235651 -117.38150024 201.60865784 C-117.38694527 193.9483817 -117.3797986 186.28819258 -117.36547852 178.62792969 C-117.34914858 169.79087304 -117.35444805 160.95402403 -117.37095773 152.11697239 C-117.38460143 144.50729747 -117.38647836 136.8976848 -117.37864172 129.2880016 C-117.37398178 124.75278737 -117.37329402 120.21767054 -117.38325119 115.68246269 C-117.39196091 111.41825712 -117.38582635 107.15431758 -117.36856842 102.89014053 C-117.36462512 101.33176806 -117.36570036 99.77337293 -117.37235641 98.21500969 C-117.43146552 82.96177667 -114.54144259 69.98197341 -103.72436523 58.59155273 C-88.11919683 43.95353882 -70.19489589 42.07358148 -49.84936523 42.27905273 C-48.11239123 42.28910242 -46.37541159 42.29822475 -44.63842773 42.30639648 C-40.41693273 42.32825299 -36.19571217 42.36267322 -31.97436523 42.40405273 C-32.00578613 41.3309082 -32.00578613 41.3309082 -32.0378418 40.23608398 C-32.12157356 36.95888622 -32.17320574 33.68191432 -32.22436523 30.40405273 C-32.25788086 29.27870117 -32.29139648 28.15334961 -32.32592773 26.99389648 C-32.41910311 19.02740182 -31.44341339 13.60820871 -26.33374023 7.41577148 C-25.53709961 6.7602832 -25.53709961 6.7602832 -24.72436523 6.09155273 C-24.20358398 5.64166992 -23.68280273 5.19178711 -23.14624023 4.72827148 C-15.58858535 0.12027687 -8.64575082 -0.03241327 0 0 Z M-17.01733398 102.11108398 C-34.38999134 122.46587414 -44.0461394 147.36373053 -41.97436523 174.40405273 C-38.99834898 198.66705356 -29.14433521 218.20898047 -11.97436523 235.40405273 C-11.25764648 236.13237305 -10.54092773 236.86069336 -9.80249023 237.61108398 C7.74270919 254.33179095 32.08452014 261.98617157 55.9519043 261.75561523 C82.24924591 260.98703046 104.72686851 249.96302185 123.02563477 231.40405273 C123.77458008 230.66541992 124.52352539 229.92678711 125.29516602 229.16577148 C141.16917415 212.54033102 148.86062914 189.08303766 149.52563477 166.40405273 C148.67454805 139.16927786 137.35930127 115.32342638 118.02563477 96.40405273 C100.41182106 79.92755481 75.66353603 70.83365096 51.61157227 71.25561523 C25.58346792 72.7496756 1.06823923 83.03556361 -17.01733398 102.11108398 Z " fill="#040404" transform="translate(120.974365234375,22.595947265625)"/>
<path d="M0 0 C15.03860022 12.49733469 24.85884532 30.25994738 27.40136719 49.68481445 C29.22455065 71.1831861 24.09375159 91.51746149 10.17480469 108.21606445 C-2.46571585 122.85792545 -19.25508704 132.00328819 -38.47363281 134.87231445 C-39.73175781 134.95481445 -40.98988281 135.03731445 -42.28613281 135.12231445 C-43.06601563 135.17387695 -43.84589844 135.22543945 -44.64941406 135.27856445 C-65.97512895 136.03681209 -85.60140535 127.77116835 -101.07397461 113.37939453 C-114.15824352 100.72517555 -122.48949728 82.34102268 -123.28613281 64.12231445 C-123.34607422 63.10524414 -123.34607422 63.10524414 -123.40722656 62.06762695 C-124.0599372 41.10409703 -116.20432847 21.54719168 -102.22753906 6.13012695 C-75.48285155 -21.95401257 -30.12138069 -23.59220462 0 0 Z M-81.66113281 33.87231445 C-88.20667517 43.56730618 -91.47794678 54.28220811 -89.78613281 65.93481445 C-86.93366956 77.91898894 -80.60545576 87.98862312 -70.41113281 94.87231445 C-60.48465441 100.64219865 -49.21865746 102.53309666 -37.97363281 99.93481445 C-26.56287533 96.56991218 -17.06660355 90.76600803 -11.1965332 79.99804688 C-5.73191039 69.11422986 -3.5719194 58.90690559 -7.22753906 47.07543945 C-11.96506829 34.75473639 -19.15754949 26.96605254 -30.77441406 20.80200195 C-48.5856486 13.07208833 -69.52265137 18.97085386 -81.66113281 33.87231445 Z " fill="#0D0D0D" transform="translate(222.2861328125,129.877685546875)"/>
<path d="M0 0 C0.66 0.33 1.32 0.66 2 1 C-8.61437191 12.93527153 -8.61437191 12.93527153 -13 17 C-13.66 17 -14.32 17 -15 17 C-11.80573668 9.96948907 -6.00185406 4.6843739 0 0 Z " fill="#5C5C5C" transform="translate(129,128)"/>
<path d="M0 0 C0.66 0.33 1.32 0.66 2 1 C0.73657512 2.48549956 -0.5360103 3.96321189 -1.8125 5.4375 C-2.52019531 6.26121094 -3.22789063 7.08492188 -3.95703125 7.93359375 C-6 10 -6 10 -9 11 C-7.59155282 7.78475695 -5.89655214 5.67816132 -3.375 3.25 C-2.74335938 2.63640625 -2.11171875 2.0228125 -1.4609375 1.390625 C-0.73777344 0.70226562 -0.73777344 0.70226562 0 0 Z " fill="#696969" transform="translate(22,77)"/>
<path d="M0 0 C0.66 0.33 1.32 0.66 2 1 C-1.625 5.875 -1.625 5.875 -5 7 C-3.70700306 4.11562221 -2.34058637 2.12780579 0 0 Z " fill="#6B6B6B" transform="translate(97,28)"/>
</svg>
