<?xml version="1.0" encoding="UTF-8"?>
<svg version="1.1" xmlns="http://www.w3.org/2000/svg" width="560" height="560">
<path d="M0 0 C1.28393646 -0.00686325 2.56787292 -0.0137265 3.89071655 -0.02079773 C7.39287479 -0.03865514 10.89478147 -0.03757491 14.39697146 -0.03185534 C17.32923001 -0.02875273 20.26144099 -0.0348678 23.19369274 -0.04089409 C30.11533457 -0.0549133 37.03685289 -0.05339977 43.95849609 -0.04199219 C51.08067685 -0.03051292 58.20248095 -0.04458909 65.32461208 -0.07138866 C71.4573742 -0.0935947 77.59001852 -0.10017206 83.72281796 -0.09431225 C87.37781334 -0.09095321 91.03256734 -0.09328708 94.68752861 -0.11056328 C98.76588414 -0.12900166 102.84351376 -0.11479517 106.921875 -0.09765625 C108.12059738 -0.10732422 109.31931976 -0.11699219 110.55436707 -0.12695312 C120.29911932 -0.04138137 127.01590774 2.36947081 134.51782227 8.54858398 C139.92598674 15.20370867 139.39492496 22.14234864 139.21313477 30.34155273 C139.19959961 31.50235352 139.18606445 32.6631543 139.17211914 33.85913086 C139.13694886 36.70792326 139.08772764 39.55574118 139.02563477 42.40405273 C140.06268555 42.38310547 141.09973633 42.3621582 142.16821289 42.34057617 C146.09694035 42.26697138 150.02561013 42.22182592 153.95483398 42.18432617 C155.64016031 42.16447997 157.32542037 42.13739381 159.01049805 42.10229492 C178.80064702 41.70106352 195.91629936 44.96403968 210.80297852 59.04858398 C219.33783902 68.09343616 224.12107929 78.70308303 224.17953491 91.12373352 C224.18391717 91.78641918 224.18829942 92.44910484 224.19281447 93.13187188 C224.20613448 95.34540458 224.2123661 97.55889753 224.21850586 99.77246094 C224.22641262 101.36298296 224.23468192 102.95350321 224.24328613 104.54402161 C224.2694546 109.76427511 224.28481532 114.98453638 224.29907227 120.20483398 C224.30443534 122.0076466 224.30981285 123.81045918 224.31520462 125.61327171 C224.33683172 133.12035713 224.35556285 140.62744046 224.36682701 148.13454914 C224.38302859 158.85890244 224.41611579 169.5828913 224.47322786 180.30710727 C224.51208979 187.86493265 224.53147921 195.42266126 224.53674757 202.98058385 C224.54038078 207.48491091 224.55218235 211.98884884 224.58485031 216.49306679 C224.615216 220.74087551 224.62114292 224.98806551 224.60946655 229.23596001 C224.60924813 230.78215991 224.61735775 232.32839094 224.63512039 233.87448883 C224.845797 253.29366166 218.82805991 268.78684839 205.40454102 283.11889648 C197.11936941 291.07755886 185.50921209 298.51001246 173.6754446 298.53827381 C172.8068986 298.54273166 171.93835259 298.5471895 171.04348701 298.55178243 C170.09379557 298.55159807 169.14410413 298.5514137 168.16563416 298.55122375 C167.15317314 298.55490044 166.14071213 298.55857713 165.09757048 298.56236523 C161.69459918 298.57340507 158.29165841 298.57724645 154.88867188 298.58105469 C152.4527578 298.58731916 150.01684468 298.59396594 147.58093262 298.60096741 C140.26324205 298.62019633 132.94555401 298.63079639 125.62784585 298.6396952 C122.1789396 298.64408147 118.73003488 298.64944745 115.28112984 298.65468407 C103.81086896 298.67169557 92.34060904 298.6861883 80.87033749 298.69343281 C77.89484086 298.6953426 74.91934425 298.69726295 71.94384766 298.69921875 C71.204332 298.69970249 70.46481634 298.70018623 69.70289112 298.70068463 C57.73128845 298.70897959 45.75978588 298.73430779 33.7882269 298.76679943 C21.48786016 298.79991032 9.18754422 298.81788525 -3.1128673 298.82107705 C-10.01524497 298.82323856 -16.91747673 298.83193425 -23.81981087 298.85753822 C-30.3163898 298.88158182 -36.81277776 298.88504562 -43.30939484 298.87477684 C-45.68975891 298.87428174 -48.07013596 298.88059445 -50.45046043 298.89433289 C-53.70911201 298.91208354 -56.96682596 298.90492924 -60.22547913 298.89179993 C-61.15955552 298.90276917 -62.09363191 298.91373842 -63.05601364 298.92504007 C-76.25958149 298.79727916 -89.11365988 292.27535183 -98.66186523 283.34155273 C-112.6276254 268.33659807 -117.77854406 251.77642197 -117.58959961 231.69165039 C-117.59311216 230.08976659 -117.5987834 228.48788632 -117.60641479 226.88601685 C-117.62050296 222.58867103 -117.60376482 218.29197736 -117.58012962 213.99469423 C-117.55983039 209.47240891 -117.56590963 204.95014566 -117.5682373 200.42782593 C-117.56818397 192.84443569 -117.54856204 185.26129661 -117.51635742 177.67797852 C-117.47939507 168.9322559 -117.47069539 160.18686075 -117.47765493 151.4410702 C-117.48397412 142.9898882 -117.4731846 134.53881744 -117.45368958 126.08765793 C-117.44555232 122.50656921 -117.44279916 118.92553763 -117.44438171 115.34444046 C-117.445265 111.12692128 -117.430926 106.90971004 -117.40515518 102.69227219 C-117.39803684 101.15164433 -117.39588869 99.6109836 -117.39927292 98.07034302 C-117.42625482 82.88373529 -114.48962788 69.92741234 -103.72436523 58.59155273 C-88.11919683 43.95353882 -70.19489589 42.07358148 -49.84936523 42.27905273 C-48.11239123 42.28910242 -46.37541159 42.29822475 -44.63842773 42.30639648 C-40.41693273 42.32825299 -36.19571217 42.36267322 -31.97436523 42.40405273 C-32.00578613 41.3309082 -32.00578613 41.3309082 -32.0378418 40.23608398 C-32.12157356 36.95888622 -32.17320574 33.68191432 -32.22436523 30.40405273 C-32.25788086 29.27870117 -32.29139648 28.15334961 -32.32592773 26.99389648 C-32.41910311 19.02740182 -31.44341339 13.60820871 -26.33374023 7.41577148 C-25.53709961 6.7602832 -25.53709961 6.7602832 -24.72436523 6.09155273 C-24.20358398 5.64166992 -23.68280273 5.19178711 -23.14624023 4.72827148 C-15.58858535 0.12027687 -8.64575082 -0.03241327 0 0 Z M-19.20507812 103.79077148 C-35.1431296 122.39656548 -43.99444014 147.65597617 -42.2019043 172.17651367 C-39.63799765 197.27638944 -29.69837005 217.65413563 -11.97436523 235.40405273 C-11.25764648 236.13237305 -10.54092773 236.86069336 -9.80249023 237.61108398 C7.74270919 254.33179095 32.08452014 261.98617157 55.9519043 261.75561523 C82.24924591 260.98703046 104.72686851 249.96302185 123.02563477 231.40405273 C123.77458008 230.66541992 124.52352539 229.92678711 125.29516602 229.16577148 C141.19551808 212.51274003 148.96795184 188.94995083 149.46313477 166.21655273 C148.78888178 143.89877907 141.66688663 122.50601919 127.02563477 105.40405273 C126.04336914 104.20522461 126.04336914 104.20522461 125.04125977 102.98217773 C108.07496327 83.04368331 83.80347573 72.5597968 58.02563477 70.40405273 C28.92690543 68.18745585 -0.10956575 82.49788249 -19.20507812 103.79077148 Z " fill="#000000" transform="translate(226.974365234375,130.595947265625)"/>
<path d="M0 0 C15.05286453 12.50918858 24.88644381 30.29857366 27.40136719 49.74731445 C27.52469737 51.20415229 27.62940529 52.66270732 27.71386719 54.12231445 C27.75511719 54.80422852 27.79636719 55.48614258 27.83886719 56.1887207 C28.46278417 77.36290335 20.46597083 96.47340115 6.08105469 111.77856445 C-6.87430576 124.605654 -23.94907669 132.91988454 -42.28613281 134.12231445 C-43.06601562 134.17387695 -43.84589844 134.22543945 -44.64941406 134.27856445 C-65.97512895 135.03681209 -85.60140535 126.77116835 -101.07397461 112.37939453 C-115.50912618 98.4186933 -122.79884065 79.15563926 -123.32128906 59.2980957 C-123.40264946 38.4937627 -114.98655294 19.52814948 -100.75537109 4.58422852 C-73.85541839 -22.18162671 -29.42493059 -23.04671856 0 0 Z M-80.39160156 31.51293945 C-88.00547835 41.83794082 -91.68488731 53.12797842 -89.78613281 65.99731445 C-86.90850276 77.95203258 -80.58691672 88.00114156 -70.41113281 94.87231445 C-60.48465441 100.64219865 -49.21865746 102.53309666 -37.97363281 99.93481445 C-26.56265437 96.56984702 -17.06726327 90.76598246 -11.1965332 79.99829102 C-5.60237779 68.85498547 -3.60647915 58.22389672 -7.19238281 46.04418945 C-12.1580058 32.95910185 -20.15768402 25.38384629 -32.39160156 19.02856445 C-48.99294405 12.09260705 -68.91308557 18.47981925 -80.39160156 31.51293945 Z " fill="#000000" transform="translate(328.2861328125,237.877685546875)"/>
</svg>
